<svg height="29.951546" viewBox="0 0 33.8186958 29.9515458" width="33.818696" xmlns="http://www.w3.org/2000/svg"><path d="m33.8186958 3.54512048c-1.2438939.60121926-2.5818461 1.00779091-3.9853219 1.19092091 1.4330672-.93638172 2.5332316-2.41754642 3.0510804-4.18319609-1.3400658.8661243-2.8259747 1.49498583-4.4059419 1.83475533-1.2660875-1.46964708-3.0690467-2.38760063-5.0643497-2.38760063-3.832081 0-6.9381168 3.38502569-6.9381168 7.56131122 0 .59200517.0612963 1.16903746.1796618 1.72303452-5.7671445-.31558253-10.87905173-3.32628589-14.30108101-7.90108073-.59711134 1.11720821-.93952564 2.41639466-.93952564 3.80196319 0 2.62255988 1.22487089 4.9375996 3.08595599 6.2932223-1.13715364-.0391599-2.2066699-.3789294-3.1419682-.9455958-.00105684.0322493-.00105684.0633469-.00105684.0955962 0 3.6637518 2.3916159 6.7193739 5.56634596 7.4138858-.58231566.1727641-1.19527953.264905-1.82832324.264905-.44704088 0-.88139976-.0472222-1.30519029-.134756.88245659 3.0037928 3.44527964 5.1898352 6.48156437 5.2508785-2.3747065 2.0282512-5.36660424 3.2364486-8.61742637 3.2364486-.56012215 0-1.11178963-.0357046-1.65500243-.1048103 3.07010348 2.1445791 6.71723845 3.3965433 10.6359798 3.3965433 12.7623304 0 19.7406069-11.5222174 19.7406069-21.51374443 0-.32825189-.006341-.65420027-.0200799-.97899688 1.3559183-1.06537896 2.5321749-2.39681472 3.462189-3.91368401" fill="#9b9b9b" fill-rule="evenodd"/></svg>