<svg height="17.970928" viewBox="0 0 20.4721583 17.9709275" width="20.472158" xmlns="http://www.w3.org/2000/svg"><path d="m20.4721583 2.12707229c-.7529916.36073155-1.5629214.60467454-2.4125159.71455255.8675077-.56182904 1.5334926-1.45052786 1.8469725-2.50991766-.8112093.51967458-1.7107047.8969915-2.6671384 1.1008532-.7664264-.88178825-1.8578483-1.43256038-3.0657057-1.43256038-2.3197514 0-4.19999119 2.03101542-4.19999119 4.53678673 0 .35520311.03710579.70142248.10875829 1.03382071-3.49114269-.18934951-6.58563737-1.99577153-8.65716388-4.74064843-.36146155.67032492-.56874215 1.44983679-.56874215 2.28117791 0 1.57353593.74147598 2.96255974 1.86808444 3.77593339-.68837632-.02349593-1.33580832-.22735763-1.90199145-.56735749-.00063975.01934959-.00063975.03800812-.00063975.0573577 0 2.19825112 1.44776544 4.03162438 3.3695893 4.44833148-.35250498.1036585-.72356285.158943-1.10677606.158943-.27061634 0-.53355563-.0283333-.79009736-.0808536.53419538 1.8022757 2.08560112 3.1139011 3.92361708 3.1505271-1.43752936 1.2169508-3.24867561 1.9418692-5.21656182 1.9418692-.33907013 0-.67302221-.0214228-1.00185625-.0628862 1.85848812 1.2867474 4.06628244 2.037926 6.43849378 2.037926 7.72568072 0 11.94998262-6.9133305 11.94998262-12.90824668 0-.19695113-.0038385-.39252016-.0121553-.58739813.8208056-.63922737 1.5328528-1.43808883 2.0958372-2.3482104" fill="#9b9b9b" fill-rule="evenodd"/></svg>