<svg height="20.003244" viewBox="0 0 18.5182717 20.003244" width="18.518272" xmlns="http://www.w3.org/2000/svg"><path d="m17.7468699 0h-16.97488945c-.42649894 0-.77198045.37318552-.77198045.83326013v18.33672377c0 .4600746.34548151.8332601.77198045.8332601h9.06585137v-7.5012165h-2.31478395v-3.12550687h2.31478395v-2.5004055c0-2.58354399 1.51444738-3.85500018 3.64809948-3.85500018 1.0219772 0 1.9004377.08251338 2.1562213.11876926v2.70043794l-1.4797256.0006251c-1.1602855 0-1.4311152.59572161-1.4311152 1.46961334v2.06596004h2.8934799l-.578696 3.12550687h-2.3147839l.0462957 7.5012165h4.9692624c.4259203 0 .7714018-.3731855.7714018-.8332601v-18.33672377c0-.46007461-.3454815-.83326013-.7714018-.83326013" fill="#9b9b9b" fill-rule="evenodd"/></svg>