<svg height="19" viewBox="0 0 20 19" width="20" xmlns="http://www.w3.org/2000/svg"><path d="m12.975 12.5047562c-.7475 0-1.375625-.6848246-1.375625-1.5292063 0-.8443816.628125-1.55179841 1.375625-1.55179841s1.35375.70741681 1.35375 1.55179841c0 .8443817-.60625 1.5292063-1.35375 1.5292063m.3175 2.968044c-.69625.7857833-1.77 1.1677319-3.2825 1.1677319-.003125 0-.006875-.000706-.010625-.000706-.003125 0-.006875.000706-.010625.000706-1.5125 0-2.585625-.3819486-3.28125-1.1677319-.21375-.2414536-.21375-.6318742 0-.8726218.213125-.2407477.55875-.2407477.7725 0 .48.5422116 1.300625.8062574 2.50875.8062574.00375 0 .0075.000706.010625.000706.00375 0 .0075-.000706.010625-.000706 1.208125 0 2.029375-.2640458 2.51-.8062574.21375-.2414537.559375-.2407477.7725 0 .213125.2414536.213125.6318742 0 .8726218m-7.62125-4.4972503c0-.8436756.626875-1.55179841 1.37375-1.55179841.7475 0 1.35375.70812281 1.35375 1.55179841 0 .8443817-.60625 1.5292063-1.35375 1.5292063-.746875 0-1.37375-.6848246-1.37375-1.5292063m10.99375-9.74145359c.50625 0 .918125.46525714.918125 1.03641499 0 .57186385-.411875 1.03712098-.918125 1.03712098s-.918125-.46525713-.918125-1.03712098c0-.57115785.411875-1.03641499.918125-1.03641499m3.335 8.06186832c0-1.49743609-1.078125-2.7152943-2.40375-2.7152943-.57375 0-1.100625.22874554-1.514375.60928211-1.465625-1.04065101-3.325625-1.66758324-5.319375-1.80031213l1.04-3.71429102 2.858125.76036712c.075 1.17549792.945 2.10601219 2.004375 2.10601219 1.108125 0 2.01-1.01876487 2.01-2.2712173 0-1.25174644-.901875-2.2705113-2.01-2.2705113-.775 0-1.44875.49843936-1.784375 1.22633026l-3.32125-.88321195c-.278125-.0741305-.559375.10660672-.645625.41442479l-1.29125 4.61021106c-2.148125.0593044-4.1675.68835464-5.740625 1.78972206-.408125-.36076843-.92125-.57680589-1.478125-.57680589-1.325625 0-2.40375 1.21785821-2.40375 2.7152943 0 .92557227.4125 1.74383177 1.040625 2.23379907-.02625.2153314-.04.4320749-.04.6516424 0 1.8716186.963125 3.6126263 2.711875 4.901791 1.67625 1.2362143 3.895 1.9168029 6.246875 1.9168029s4.570625-.6805886 6.246875-1.9168029c1.74875-1.2891647 2.711875-3.0301724 2.711875-4.901791 0-.1997994-.011875-.3981867-.03375-.595162.67-.4822013 1.115625-1.328701 1.115625-2.29027947" fill="#9b9b9b" fill-rule="evenodd"/></svg>