<svg height="16" viewBox="0 0 18 16" width="18" xmlns="http://www.w3.org/2000/svg"><path d="m18 1.89378966c-.6620625.321169-1.3741875.538358-2.1211875.63618534.76275-.50021149 1.3483125-1.29144395 1.6239375-2.23464718-.71325.46268026-1.504125.79861565-2.3450625.98011921-.673875-.78507979-1.6335-1.27544703-2.6955-1.27544703-2.039625 0-3.6928125 1.80826764-3.6928125 4.03922323 0 .31624687.032625.62449529.095625.92043837-3.0695625-.16858296-5.790375-1.77688906-7.61175-4.22072678-.3178125.59680831-.5000625 1.29082869-.5000625 2.03099404 0 1.40096135.6519375 2.63764661 1.6425 3.36181504-.60525-.02091906-1.1745-.20242262-1.6723125-.50513363-.0005625.01722745-.0005625.03383964-.0005625.0510671 0 1.95716208 1.2729375 3.58946356 2.9626875 3.96046914-.3099375.09228994-.6361875.14151125-.973125.14151125-.2379375 0-.469125-.02522592-.6946875-.07198616.4696875 1.6046145 1.83375 2.7723899 3.4498125 2.804999-1.2639375 1.083484-2.856375 1.7288983-4.586625 1.7288983-.298125 0-.59175-.0190732-.880875-.0559892 1.6340625 1.1456258 3.57525 1.8144203 5.661 1.8144203 6.79275 0 10.5069375-6.15512401 10.5069375-11.49255912 0-.1753509-.003375-.34947126-.0106875-.52297635.7216875-.56912133 1.34775-1.28036916 1.84275-2.09067487" fill="#9b9b9b" fill-rule="evenodd"/></svg>