<svg height="33.33874" viewBox="0 0 30.5910001 33.33874" width="30.591" xmlns="http://www.w3.org/2000/svg"><path d="m29.3166938 0h-28.04143148c-.70454897 0-1.27526232.62197587-1.27526232 1.38876689v30.56120621c0 .7667911.57071335 1.3887669 1.27526232 1.3887669h14.97620648v-12.5020275h-3.823875v-5.2091781h3.823875v-4.1673425c0-4.30590666 2.5017702-6.42500032 6.026427-6.42500032 1.6882409 0 3.1394014.1375223 3.5619396.19794877v4.5007299l-2.4444121.00104184c-1.9167173 0-2.3641107.99286931-2.3641107 2.44935551v3.4432668h4.7798438l-.9559688 5.2091781h-3.823875l.0764775 12.5020275h8.2089037c.703593 0 1.2743063-.6219758 1.2743063-1.3887669v-30.56120621c0-.76679102-.5707133-1.38876689-1.2743063-1.38876689" fill="#9b9b9b" fill-rule="evenodd"/></svg>