<svg height="18" viewBox="0 0 17 18" width="17" xmlns="http://www.w3.org/2000/svg"><path d="m16.2918438 0h-15.5831563c-.39153125 0-.7086875.3358125-.7086875.7498125v16.500375c0 .414.31715625.7498125.7086875.7498125h8.3225625v-6.75h-2.125v-2.8125h2.125v-2.25c0-2.3248125 1.3902813-3.4689375 3.349-3.4689375.9381875 0 1.744625.07425 1.9794375.106875v2.43l-1.3584062.0005625c-1.0651563 0-1.3137813.5360625-1.3137813 1.3224375v1.8590625h2.65625l-.53125 2.8125h-2.125l.0425 6.75h4.5618438c.391 0 .7081562-.3358125.7081562-.7498125v-16.500375c0-.414-.3171562-.7498125-.7081562-.7498125" fill="#9b9b9b" fill-rule="evenodd"/></svg>