<svg height="20.519845" viewBox="0 0 22.5880164 20.5198448" width="22.588016" xmlns="http://www.w3.org/2000/svg"><path d="m14.6539756 13.5050346c-.8442271 0-1.553632-.739605-1.553632-1.6515303 0-.9119254.7094049-1.6759297 1.553632-1.6759297s1.5289264.7640043 1.5289264 1.6759297c0 .9119253-.6846993 1.6515303-1.5289264 1.6515303m.3585848 3.2054633c-.7863453.8486395-1.9990395 1.2611408-3.7072582 1.2611408-.0035294 0-.0077646-.0007625-.0119999-.0007625-.0035294 0-.0077646.0007625-.0119999.0007625-1.70821871 0-2.92020697-.4125013-3.70584641-1.2611408-.24140943-.260768-.24140943-.6824191 0-.9424245.24070355-.2600055.63105271-.2600055.87246213 0 .54211239.5855841 1.46892694.8707514 2.83338428.8707514.0042353 0 .0084705.0007625.0119999.0007625.0042353 0 .0084705-.0007625.0119999-.0007625 1.3644574 0 2.2919778-.2851673 2.834796-.8707514.2414095-.260768.6317586-.2600055.8724622 0 .2407035.2607679.2407035.682419 0 .9424245m-8.60744601-4.8569936c0-.9111629.70799314-1.6759297 1.55151437-1.6759297.84422712 0 1.52892636.7647668 1.52892636 1.6759297 0 .9119253-.68469924 1.6515303-1.52892636 1.6515303-.84352123 0-1.55151437-.739605-1.55151437-1.6515303m12.41635021-10.52069036c.5717592 0 1.0369312.5024739 1.0369312 1.11931971 0 .61760829-.465172 1.12008219-1.0369312 1.12008219-.5717591 0-1.0369311-.5024739-1.0369311-1.12008219 0-.61684581.465172-1.11931971 1.0369311-1.11931971m3.7665518 8.70675196c0-1.61721879-1.2176353-2.9324957-2.7147973-2.9324957-.6479937 0-1.2430467.24704331-1.7103363.65801969-1.6552781-1.12389459-3.7559636-1.80097627-6.0077065-1.94432239l1.1745769-4.01140396 3.2279687.82119028c.084705 1.26952815 1.0672837 2.27447596 2.2637427 2.27447596 1.2515173 0 2.2700957-1.10025773 2.2700957-2.45289613 0-1.35187592-1.0185784-2.45213365-2.2700957-2.45213365-.8752856 0-1.6362194.53831044-2.0152745 1.32442666l-3.7510225-.95386169c-.3141146-.08006033-.6317586.11513439-.7291694.44757539l-1.4583388 4.97899028c-2.42609416.06404827-4.70677794.74341739-6.4834666 1.9328852-.46093671-.38962695-1.0404605-.62294564-1.66939558-.62294564-1.49716196 0-2.71479722 1.31527691-2.71479722 2.9324957 0 .9996104.46587784 1.883324 1.17528273 2.4124847-.02964677.2325562-.04517604.4666373-.04517604.7037684 0 2.0213328 1.08775417 3.901607 3.06279385 5.2938943 1.89315812 1.3351014 4.39901619 2.0701315 7.05522576 2.0701315 2.6562095 0 5.1620676-.7350301 7.0552257-2.0701315 1.9750397-1.3922873 3.0627939-3.2725615 3.0627939-5.2938943 0-.2157816-.0134117-.4300383-.0381173-.6427701.7566985-.5207734 1.2599878-1.4349861 1.2599878-2.473483" fill="#9b9b9b" fill-rule="evenodd"/></svg>