<svg height="34.199741" viewBox="0 0 37.313958 34.1997413" width="37.313958" xmlns="http://www.w3.org/2000/svg"><path d="m24.2074303 22.508391c-1.3946092 0-2.5665007-1.232675-2.5665007-2.7525505 0-1.5198756 1.1718915-2.7932161 2.5665007-2.7932161 1.3946091 0 2.5256885 1.2733405 2.5256885 2.7932161 0 1.5198755-1.1310794 2.7525505-2.5256885 2.7525505m.592359 5.3424388c-1.2989921 1.4143992-3.3022852 2.1019014-6.1241533 2.1019014-.0058303 0-.0128267-.0012708-.0198231-.0012708-.0058303 0-.0128266.0012708-.019823.0012708-2.8218681 0-4.8239951-.6875022-6.1218212-2.1019014-.398793-.4346133-.398793-1.1373651 0-1.5707075.3976268-.4333425 1.0424587-.4333425 1.4412516 0 .895535.9759735 2.4265733 1.4512524 4.6805696 1.4512524.0069964 0 .0139927.0012708.019823.0012708.0069964 0 .0139928-.0012708.0198231-.0012708 2.2539963 0 3.7862007-.4752789 4.6829017-1.4512524.3987929-.4346133 1.0436248-.4333425 1.4412516 0 .3976269.4346132.3976269 1.137365 0 1.5707075m-14.2189501-8.0949893c0-1.5186048 1.1695594-2.7932161 2.5630025-2.7932161 1.3946092 0 2.5256885 1.2746113 2.5256885 2.7932161 0 1.5198755-1.1310793 2.7525505-2.5256885 2.7525505-1.3934431 0-2.5630025-1.232675-2.5630025-2.7525505m20.5110163-17.53448394c.9445096 0 1.7129439.83745651 1.7129439 1.86553286 0 1.02934715-.7684343 1.86680365-1.7129439 1.86680365-.9445095 0-1.7129439-.8374565-1.7129439-1.86680365 0-1.02807635.7684344-1.86553286 1.7129439-1.86553286m6.2221025 14.51125324c0-2.6953646-2.0114555-4.8874928-4.4846713-4.8874928-1.0704442 0-2.0534338.4117389-2.8253663 1.0966995-2.7344135-1.8731577-6.2046116-3.00162713-9.9243467-3.24053733l1.9403258-6.68567327 5.3323978 1.36865047c.1399273 2.11588025 1.7630845 3.79079326 3.7395582 3.79079326 2.0674265 0 3.7500528-1.83376288 3.7500528-4.08816021 0-2.25312654-1.6826263-4.08688942-3.7500528-4.08688942-1.4459159 0-2.7029298.89718406-3.3291047 2.20737777l-6.1964491-1.58976948c-.5188973-.13343389-1.0436248.19189064-1.2045412.74595898l-2.4090825 8.29831713c-4.0077523.10674712-7.775296 1.239029-10.71027196 3.2214753-.76143796-.6493782-1.71877419-1.0382427-2.75773471-1.0382427-2.47321578 0-4.48467133 2.1921282-4.48467133 4.8874928 0 1.6660174.76960038 3.1388734 1.94149188 4.0208078-.04897457.3875937-.07462792.777729-.07462792 1.1729475 0 3.368888 1.79690029 6.5026782 5.0595395 8.8231571 3.12737614 2.2251689 7.26689334 3.4502191 11.65478154 3.4502191 4.3878883 0 8.5274055-1.2250502 11.6547816-3.4502191 3.2626392-2.3204789 5.0595395-5.4542691 5.0595395-8.8231571 0-.3596361-.0221552-.7167307-.0629673-1.0712836 1.2500176-.8679556 2.0814192-2.3916436 2.0814192-4.1224717" fill="#9b9b9b" fill-rule="evenodd"/></svg>